<?xml version="1.0" encoding="utf-8"?>
<!-- Generator: Adobe Illustrator 19.2.1, SVG Export Plug-In . SVG Version: 6.00 Build 0)  -->
<svg version="1.1" id="Layer_1" xmlns="http://www.w3.org/2000/svg" xmlns:xlink="http://www.w3.org/1999/xlink" x="0px" y="0px"
	 width="32px" height="32px" viewBox="0 0 32 32" style="enable-background:new 0 0 32 32;" xml:space="preserve">
<style type="text/css">
	.st0{fill:#22A8DC;}
	.st1{fill:#FFFFFF;}
	.st2{fill:#2278BB;}
</style>
<circle id="XMLID_472_" class="st0" cx="16" cy="16" r="16"/>
<g id="XMLID_356_">
	<g>
		<path class="st1" d="M24,11.569c-0.589,0.261-1.221,0.438-1.885,0.517c0.678-0.406,1.198-1.05,1.443-1.816
			c-0.634,0.376-1.337,0.649-2.084,0.797c-0.599-0.638-1.452-1.037-2.396-1.037c-1.813,0-3.283,1.47-3.283,3.283
			c0,0.257,0.029,0.508,0.085,0.748c-2.728-0.137-5.147-1.444-6.766-3.43c-0.283,0.485-0.444,1.049-0.444,1.65
			c0,1.139,0.758,2.144,1.639,2.732C9.77,14.996,9,14.848,9,14.603c0,0.014,0,0.027,0,0.041c0,1.59,0.953,2.917,2.455,3.219
			c-0.275,0.075-0.655,0.115-0.954,0.115c-0.212,0-0.462-0.021-0.662-0.059c0.418,1.304,1.608,2.253,3.044,2.28
			c-1.123,0.88-2.55,1.405-4.088,1.405c-0.265,0-0.532-0.016-0.789-0.046c1.453,0.931,3.175,1.475,5.029,1.475
			c6.038,0,9.338-5.002,9.338-9.34c0-0.142-0.004-0.284-0.01-0.425C23.004,12.806,23.56,12.227,24,11.569z"/>
	</g>
</g>
</svg>
