<?xml version="1.0" encoding="utf-8"?>
<!-- Generator: Adobe Illustrator 19.2.1, SVG Export Plug-In . SVG Version: 6.00 Build 0)  -->
<svg version="1.1" id="Layer_1" xmlns="http://www.w3.org/2000/svg" xmlns:xlink="http://www.w3.org/1999/xlink" x="0px" y="0px"
	 width="32px" height="32px" viewBox="0 0 32 32" style="enable-background:new 0 0 32 32;" xml:space="preserve">
<style type="text/css">
	.st0{fill:#22A8DC;}
	.st1{fill:#FFFFFF;}
	.st2{fill:#2278BB;}
</style>
<circle id="XMLID_1_" class="st2" cx="16" cy="16" r="16"/>
<path class="st1" d="M15,18v-1c0.396,0,0.775-0.046,1.137-0.137c0.362-0.091,0.681-0.237,0.957-0.438s0.496-0.458,0.66-0.773
	S18,14.953,18,14.5c0-0.344-0.066-0.667-0.199-0.969s-0.312-0.566-0.539-0.793s-0.491-0.406-0.793-0.539S15.844,12,15.5,12h-4
	c-0.344,0-0.667,0.066-0.969,0.199s-0.566,0.312-0.793,0.539s-0.406,0.491-0.539,0.793S9,14.156,9,14.5
	c0,0.453,0.082,0.837,0.246,1.152s0.384,0.573,0.66,0.773s0.595,0.346,0.957,0.438S11.604,17,12,17v1h-0.5
	c-0.484,0-0.939-0.092-1.363-0.277s-0.794-0.435-1.109-0.75s-0.565-0.685-0.75-1.109C8.092,15.439,8,14.984,8,14.5
	s0.092-0.939,0.277-1.363s0.435-0.794,0.75-1.109s0.685-0.565,1.109-0.75S11.016,11,11.5,11h4c0.484,0,0.939,0.092,1.363,0.277
	s0.794,0.435,1.109,0.75s0.565,0.685,0.75,1.109S19,14.016,19,14.5s-0.092,0.939-0.277,1.363c-0.185,0.424-0.435,0.794-0.75,1.109
	s-0.685,0.565-1.109,0.75S15.984,18,15.5,18H15z M20,14v1c0.396,0,0.775,0.046,1.137,0.137s0.681,0.237,0.957,0.438
	s0.496,0.458,0.66,0.773S23,17.047,23,17.5c0,0.344-0.066,0.667-0.199,0.969s-0.312,0.566-0.539,0.793s-0.491,0.406-0.793,0.539
	S20.844,20,20.5,20h-4c-0.344,0-0.667-0.066-0.969-0.199s-0.566-0.312-0.793-0.539s-0.406-0.491-0.539-0.793S14,17.844,14,17.5
	c0-0.453,0.082-0.837,0.246-1.152s0.384-0.573,0.66-0.773s0.595-0.346,0.957-0.438C16.225,15.046,16.604,15,17,15v-1h-0.5
	c-0.484,0-0.939,0.092-1.363,0.277s-0.794,0.435-1.109,0.75s-0.565,0.685-0.75,1.109C13.092,16.561,13,17.016,13,17.5
	s0.092,0.939,0.277,1.363s0.435,0.794,0.75,1.109s0.685,0.565,1.109,0.75S16.016,21,16.5,21h4c0.484,0,0.939-0.092,1.363-0.277
	s0.794-0.435,1.109-0.75s0.565-0.685,0.75-1.109S24,17.984,24,17.5s-0.092-0.939-0.277-1.363c-0.185-0.424-0.435-0.794-0.75-1.109
	s-0.685-0.565-1.109-0.75S20.984,14,20.5,14H20z"/>
</svg>
